<svg width="1200" height="900" viewBox="0 0 1200 900" fill="none" xmlns="http://www.w3.org/2000/svg">
  <rect width="1200" height="900" fill="#F3E8FF"/>
  <rect x="180" y="160" width="840" height="580" rx="48" fill="#FFFFFF"/>
  <path d="M405 505h365c38 0 69-31 69-69V315H510c-58 0-105 47-105 105v85Z" fill="#6D28D9"/>
  <path d="M500 505 380 650h420l-90-145H500Z" fill="#4C1D95"/>
  <circle cx="425" cy="690" r="50" fill="#111827"/>
  <circle cx="760" cy="690" r="50" fill="#111827"/>
  <circle cx="425" cy="690" r="20" fill="#F8FAFC"/>
  <circle cx="760" cy="690" r="20" fill="#F8FAFC"/>
  <path d="M820 315h90c38 0 70 32 70 70" stroke="#4C1D95" stroke-width="34" stroke-linecap="round"/>
  <text x="600" y="255" text-anchor="middle" font-family="Arial, sans-serif" font-size="54" font-weight="800" fill="#4C1D95">Premium uşaq arabası</text>
  <text x="600" y="810" text-anchor="middle" font-family="Arial, sans-serif" font-size="34" font-weight="700" fill="#64748B">alışveriş.az</text>
</svg>
